# xmcd CD database file
#
# Track frame offsets:
#	150
#	15972
#	32887
#	49168
#	68779
#	84793
#	106145
#	122823
#	135965
#	165359
#	183892
#	205031
#	218591
#	232795
#	257791
#
# Disc length: 3711 seconds
#
# Revision: 0
# Processed by: cddbd v1.5.2PL0 Copyright (c) Steve Scherf et al.
# Submitted via: CDex 1.51
#
DISCID=af0e7d0f
DTITLE=Dolapdere Big Gang - Just Feel
DYEAR=2008
DGENRE=Jazz
TTITLE0=Smooth
TTITLE1=Faith
TTITLE2=Big In Japan
TTITLE3=Final Countdown
TTITLE4=Get Down On It
TTITLE5=You Don't Fool Me
TTITLE6=Gimme Hope Jo'anna
TTITLE7=A Drinking Song
TTITLE8=Another Day In Paradise
TTITLE9=Don't Let Me Be Misunderstood
TTITLE10=Hell
TTITLE11=Sex Bomb
TTITLE12=Jailhouse Rock
TTITLE13=Satisfaction
TTITLE14=Oh life!
EXTD=YEAR: 2008
EXTT0=
EXTT1=
EXTT2=
EXTT3=
EXTT4=
EXTT5=
EXTT6=
EXTT7=
EXTT8=
EXTT9=
EXTT10=
EXTT11=
EXTT12=
EXTT13=
EXTT14=
PLAYORDER=
